<svg xmlns="http://www.w3.org/2000/svg" viewBox="0 0 1200 800" width="100%" height="100%">
  <defs>
    <linearGradient id="mrs-bg" x1="0%" y1="0%" x2="100%" y2="100%">
      <stop offset="0%" stop-color="#0E1B2E"/>
      <stop offset="100%" stop-color="#162A45"/>
    </linearGradient>
    <linearGradient id="bar-grad" x1="0%" y1="0%" x2="0%" y2="100%">
      <stop offset="0%" stop-color="#3B82F6"/>
      <stop offset="100%" stop-color="#1D4ED8"/>
    </linearGradient>
  </defs>

  <!-- Browser/App Window Frame -->
  <rect width="1200" height="800" fill="url(#mrs-bg)"/>
  
  <!-- Window Top Bar -->
  <rect width="1200" height="44" fill="#0A1322"/>
  <circle cx="28" cy="22" r="6" fill="#EF4444"/>
  <circle cx="48" cy="22" r="6" fill="#F59E0B"/>
  <circle cx="68" cy="22" r="6" fill="#10B981"/>
  <rect x="360" y="10" width="480" height="24" rx="4" fill="#152438"/>
  <text x="600" y="26" fill="#94A3B8" font-family="monospace" font-size="11" text-anchor="middle">report-tembel.krya.global // internal-portal</text>

  <!-- Left Sidebar -->
  <rect x="0" y="44" width="220" height="756" fill="#0C1728" stroke="#1E293B" stroke-width="1"/>
  <text x="24" y="85" fill="#F8FAFC" font-family="sans-serif" font-weight="900" font-size="14" letter-spacing="2">KRYA MENTOR</text>
  <text x="24" y="102" fill="#64748B" font-family="monospace" font-size="10">REPORTING SYSTEM v2.4</text>
  <line x1="20" y1="120" x2="200" y2="120" stroke="#1E293B" stroke-width="1"/>

  <!-- Nav Items -->
  <rect x="16" y="140" width="188" height="36" rx="4" fill="#1E3A8A"/>
  <text x="36" y="163" fill="#FFFFFF" font-family="sans-serif" font-size="12" font-weight="600">Dashboard</text>
  <text x="36" y="205" fill="#94A3B8" font-family="sans-serif" font-size="12">Student Rosters</text>
  <text x="36" y="245" fill="#94A3B8" font-family="sans-serif" font-size="12">Attendance Logs</text>
  <text x="36" y="285" fill="#94A3B8" font-family="sans-serif" font-size="12">Curriculum Progress</text>
  <text x="36" y="325" fill="#94A3B8" font-family="sans-serif" font-size="12">Parent Reports</text>
  <text x="36" y="365" fill="#94A3B8" font-family="sans-serif" font-size="12">Metaverse Analytics</text>

  <!-- Main Content Area -->
  <!-- Top Stats Bar -->
  <g transform="translate(250, 70)">
    <!-- Stat 1 -->
    <rect width="210" height="90" rx="6" fill="#112239" stroke="#1E3A5F" stroke-width="1"/>
    <text x="16" y="30" fill="#94A3B8" font-family="monospace" font-size="10" letter-spacing="1">TOTAL SESSIONS</text>
    <text x="16" y="65" fill="#F8FAFC" font-family="sans-serif" font-size="28" font-weight="800">1,420</text>
    <text x="150" y="65" fill="#10B981" font-family="monospace" font-size="11">+18.4%</text>

    <!-- Stat 2 -->
    <rect x="230" width="210" height="90" rx="6" fill="#112239" stroke="#1E3A5F" stroke-width="1"/>
    <text x="246" y="30" fill="#94A3B8" font-family="monospace" font-size="10" letter-spacing="1">ACTIVE STUDENTS</text>
    <text x="246" y="65" fill="#F8FAFC" font-family="sans-serif" font-size="28" font-weight="800">385</text>
    <text x="380" y="65" fill="#10B981" font-family="monospace" font-size="11">+12.0%</text>

    <!-- Stat 3 -->
    <rect x="460" width="210" height="90" rx="6" fill="#112239" stroke="#1E3A5F" stroke-width="1"/>
    <text x="476" y="30" fill="#94A3B8" font-family="monospace" font-size="10" letter-spacing="1">REPORTING RATE</text>
    <text x="476" y="65" fill="#F8FAFC" font-family="sans-serif" font-size="28" font-weight="800">98.6%</text>
    <text x="610" y="65" fill="#3B82F6" font-family="monospace" font-size="11">OPTIMAL</text>

    <!-- Stat 4 -->
    <rect x="690" width="210" height="90" rx="6" fill="#112239" stroke="#1E3A5F" stroke-width="1"/>
    <text x="706" y="30" fill="#94A3B8" font-family="monospace" font-size="10" letter-spacing="1">SCHOOL PARTNERS</text>
    <text x="706" y="65" fill="#F8FAFC" font-family="sans-serif" font-size="28" font-weight="800">14</text>
    <text x="830" y="65" fill="#94A3B8" font-family="monospace" font-size="11">ACTIVE</text>
  </g>

  <!-- Chart & Activity Section -->
  <g transform="translate(250, 185)">
    <!-- Chart Box -->
    <rect width="570" height="280" rx="6" fill="#112239" stroke="#1E3A5F" stroke-width="1"/>
    <text x="20" y="32" fill="#F8FAFC" font-family="sans-serif" font-size="14" font-weight="700">Weekly Mentoring Hours & Engagement</text>
    <text x="20" y="50" fill="#64748B" font-family="monospace" font-size="10">AGGREGATE DATA // MON-SUN SESSIONS</text>
    
    <!-- Chart Lines & Bars -->
    <line x1="40" y1="230" x2="530" y2="230" stroke="#1E293B" stroke-width="1"/>
    <line x1="40" y1="170" x2="530" y2="170" stroke="#1E293B" stroke-width="1" stroke-dasharray="4"/>
    <line x1="40" y1="110" x2="530" y2="110" stroke="#1E293B" stroke-width="1" stroke-dasharray="4"/>
    
    <!-- Bars -->
    <rect x="60" y="140" width="36" height="90" rx="3" fill="url(#bar-grad)"/>
    <rect x="130" y="110" width="36" height="120" rx="3" fill="url(#bar-grad)"/>
    <rect x="200" y="80" width="36" height="150" rx="3" fill="url(#bar-grad)"/>
    <rect x="270" y="95" width="36" height="135" rx="3" fill="url(#bar-grad)"/>
    <rect x="340" y="65" width="36" height="165" rx="3" fill="url(#bar-grad)"/>
    <rect x="410" y="125" width="36" height="105" rx="3" fill="url(#bar-grad)"/>
    <rect x="480" y="155" width="36" height="75" rx="3" fill="url(#bar-grad)"/>

    <text x="78" y="250" fill="#64748B" font-family="monospace" font-size="10" text-anchor="middle">MON</text>
    <text x="148" y="250" fill="#64748B" font-family="monospace" font-size="10" text-anchor="middle">TUE</text>
    <text x="218" y="250" fill="#64748B" font-family="monospace" font-size="10" text-anchor="middle">WED</text>
    <text x="288" y="250" fill="#64748B" font-family="monospace" font-size="10" text-anchor="middle">THU</text>
    <text x="358" y="250" fill="#64748B" font-family="monospace" font-size="10" text-anchor="middle">FRI</text>
    <text x="428" y="250" fill="#64748B" font-family="monospace" font-size="10" text-anchor="middle">SAT</text>
    <text x="498" y="250" fill="#64748B" font-family="monospace" font-size="10" text-anchor="middle">SUN</text>

    <!-- Side Panel (Live Feed) -->
    <rect x="590" width="310" height="280" rx="6" fill="#112239" stroke="#1E3A5F" stroke-width="1"/>
    <text x="610" y="32" fill="#F8FAFC" font-family="sans-serif" font-size="14" font-weight="700">Recent Reports Submitted</text>
    <text x="610" y="50" fill="#64748B" font-family="monospace" font-size="10">REAL-TIME STREAM</text>

    <!-- Feed Items -->
    <rect x="610" y="70" width="270" height="54" rx="4" fill="#162A45"/>
    <text x="622" y="90" fill="#E2E8F0" font-family="sans-serif" font-size="11" font-weight="600">Sekolah Bintang Mayantara</text>
    <text x="622" y="108" fill="#94A3B8" font-family="monospace" font-size="9">METAVERSE 3D COACHING // CLASS A</text>
    <text x="840" y="90" fill="#10B981" font-family="monospace" font-size="9">DONE</text>

    <rect x="610" y="134" width="270" height="54" rx="4" fill="#162A45"/>
    <text x="622" y="154" fill="#E2E8F0" font-family="sans-serif" font-size="11" font-weight="600">Dharma Mulya School</text>
    <text x="622" y="172" fill="#94A3B8" font-family="monospace" font-size="9">PYTHON GAME DEV // INTERMEDIATE</text>
    <text x="840" y="154" fill="#10B981" font-family="monospace" font-size="9">DONE</text>

    <rect x="610" y="198" width="270" height="54" rx="4" fill="#162A45"/>
    <text x="622" y="218" fill="#E2E8F0" font-family="sans-serif" font-size="11" font-weight="600">Xingzhong School</text>
    <text x="622" y="236" fill="#94A3B8" font-family="monospace" font-size="9">SCRATCH CREATIVE CODING // SEMINAR</text>
    <text x="840" y="218" fill="#3B82F6" font-family="monospace" font-size="9">SYNC</text>
  </g>

  <!-- Bottom Table: Student Roster -->
  <g transform="translate(250, 485)">
    <rect width="900" height="280" rx="6" fill="#112239" stroke="#1E3A5F" stroke-width="1"/>
    <text x="24" y="32" fill="#F8FAFC" font-family="sans-serif" font-size="14" font-weight="700">Curriculum Delivery & Student Tracking</text>
    
    <!-- Table Header -->
    <rect x="24" y="50" width="852" height="30" fill="#162A45"/>
    <text x="40" y="70" fill="#94A3B8" font-family="monospace" font-size="10">STUDENT / COHORT</text>
    <text x="280" y="70" fill="#94A3B8" font-family="monospace" font-size="10">MODULE</text>
    <text x="480" y="70" fill="#94A3B8" font-family="monospace" font-size="10">PROGRESS</text>
    <text x="680" y="70" fill="#94A3B8" font-family="monospace" font-size="10">STATUS</text>
    <text x="800" y="70" fill="#94A3B8" font-family="monospace" font-size="10">ACTION</text>

    <!-- Row 1 -->
    <text x="40" y="105" fill="#E2E8F0" font-family="sans-serif" font-size="12">Kevin A. (Cohort 12)</text>
    <text x="280" y="105" fill="#94A3B8" font-family="sans-serif" font-size="12">3D World Building (Firestorm)</text>
    <rect x="480" y="96" width="120" height="8" rx="4" fill="#1E293B"/>
    <rect x="480" y="96" width="108" height="8" rx="4" fill="#3B82F6"/>
    <text x="610" y="105" fill="#94A3B8" font-family="monospace" font-size="10">90%</text>
    <text x="680" y="105" fill="#10B981" font-family="monospace" font-size="11">COMPLETED</text>
    <text x="800" y="105" fill="#38BDF8" font-family="monospace" font-size="11">VIEW LOG</text>

    <!-- Row 2 -->
    <line x1="24" y1="125" x2="876" y2="125" stroke="#1E293B" stroke-width="1"/>
    <text x="40" y="150" fill="#E2E8F0" font-family="sans-serif" font-size="12">Clarissa M. (Cohort 14)</text>
    <text x="280" y="150" fill="#94A3B8" font-family="sans-serif" font-size="12">Python Pygame Architecture</text>
    <rect x="480" y="141" width="120" height="8" rx="4" fill="#1E293B"/>
    <rect x="480" y="141" width="90" height="8" rx="4" fill="#3B82F6"/>
    <text x="610" y="150" fill="#94A3B8" font-family="monospace" font-size="10">75%</text>
    <text x="680" y="150" fill="#3B82F6" font-family="monospace" font-size="11">IN PROGRESS</text>
    <text x="800" y="150" fill="#38BDF8" font-family="monospace" font-size="11">VIEW LOG</text>

    <!-- Row 3 -->
    <line x1="24" y1="170" x2="876" y2="170" stroke="#1E293B" stroke-width="1"/>
    <text x="40" y="195" fill="#E2E8F0" font-family="sans-serif" font-size="12">Dharma Mulya Junior Team</text>
    <text x="280" y="195" fill="#94A3B8" font-family="sans-serif" font-size="12">National Hackathon Sprint</text>
    <rect x="480" y="186" width="120" height="8" rx="4" fill="#1E293B"/>
    <rect x="480" y="186" width="120" height="8" rx="4" fill="#10B981"/>
    <text x="610" y="195" fill="#94A3B8" font-family="monospace" font-size="10">100%</text>
    <text x="680" y="195" fill="#10B981" font-family="monospace" font-size="11">SUBMITTED</text>
    <text x="800" y="195" fill="#38BDF8" font-family="monospace" font-size="11">VIEW LOG</text>
  </g>
</svg>
